<?xml version="1.0" encoding="iso-8859-1"?>
<!-- Generator: Adobe Illustrator 19.0.0, SVG Export Plug-In . SVG Version: 6.00 Build 0)  -->
<svg version="1.1" id="Layer_1" xmlns="http://www.w3.org/2000/svg" xmlns:xlink="http://www.w3.org/1999/xlink" x="0px" y="0px"
	 viewBox="0 0 512.003 512.003" style="enable-background:new 0 0 512.003 512.003;" xml:space="preserve">
<path id="SVGCleanerId_0" style="fill:#D8143A;" d="M360.773,20.807c-38.114,0-75.772,14.352-104.769,39.228
	c-0.002-0.002-0.003-0.003-0.005-0.003c-29.001-24.876-66.657-39.225-104.77-39.225C66.429,20.807,0,87.234,0,172.037
	c0,102.506,71.37,165.162,179.402,260.002c9.234,8.107,18.763,16.471,28.57,25.143c0.067,0.059,0.135,0.119,0.203,0.177
	l32.617,28.174c4.367,3.774,9.789,5.66,15.21,5.663c0.003,0,0.005,0,0.008,0c5.424,0,10.847-1.889,15.219-5.663l32.611-28.174
	c0.068-0.059,0.135-0.118,0.203-0.177c64.565-57.104,112.977-100.818,148-143.453c40.907-49.796,59.961-94.82,59.961-141.692
	C512,87.234,445.573,20.807,360.773,20.807z"/>
<g>
	<path id="SVGCleanerId_0_1_" style="fill:#D8143A;" d="M360.773,20.807c-38.114,0-75.772,14.352-104.769,39.228
		c-0.002-0.002-0.003-0.003-0.005-0.003c-29.001-24.876-66.657-39.225-104.77-39.225C66.429,20.807,0,87.234,0,172.037
		c0,102.506,71.37,165.162,179.402,260.002c9.234,8.107,18.763,16.471,28.57,25.143c0.067,0.059,0.135,0.119,0.203,0.177
		l32.617,28.174c4.367,3.774,9.789,5.66,15.21,5.663c0.003,0,0.005,0,0.008,0c5.424,0,10.847-1.889,15.219-5.663l32.611-28.174
		c0.068-0.059,0.135-0.118,0.203-0.177c64.565-57.104,112.977-100.818,148-143.453c40.907-49.796,59.961-94.82,59.961-141.692
		C512,87.234,445.573,20.807,360.773,20.807z"/>
</g>
<polygon style="fill:#830018;" points="287.037,209.449 287.037,147.373 256,147.373 224.961,147.373 224.961,209.449 
	162.889,209.449 162.889,271.523 224.961,271.523 224.961,333.596 256,333.596 287.037,333.596 287.037,271.523 349.111,271.523 
	349.111,209.449 "/>
<path style="fill:#B8002B;" d="M179.402,432.039c9.234,8.107,18.763,16.471,28.57,25.143c0.067,0.059,0.135,0.119,0.203,0.177
	l32.617,28.174c4.367,3.774,9.789,5.66,15.21,5.663v-157.6h-31.039v-62.073H162.89v-62.074h62.073v-62.076h31.039v-87.34
	C227,35.157,189.345,20.809,151.231,20.809C66.429,20.807,0,87.234,0,172.039C0,274.543,71.37,337.199,179.402,432.039z"/>
<g>
</g>
<g>
</g>
<g>
</g>
<g>
</g>
<g>
</g>
<g>
</g>
<g>
</g>
<g>
</g>
<g>
</g>
<g>
</g>
<g>
</g>
<g>
</g>
<g>
</g>
<g>
</g>
<g>
</g>
</svg>
