<?xml version="1.0" encoding="iso-8859-1"?>
<!-- Generator: Adobe Illustrator 18.1.1, SVG Export Plug-In . SVG Version: 6.00 Build 0)  -->
<svg version="1.1" id="Capa_1" xmlns="http://www.w3.org/2000/svg" xmlns:xlink="http://www.w3.org/1999/xlink" x="0px" y="0px"
	 viewBox="0 0 20.19 20.19" style="enable-background:new 0 0 20.19 20.19;" xml:space="preserve">
<g>
	<g>
		<path style="fill:#030104;" d="M15.334,11.246c-2.469,0-4.472,2.001-4.472,4.471s2.003,4.473,4.472,4.473
			c2.472,0,4.475-2.003,4.475-4.473S17.806,11.246,15.334,11.246z M16.32,16.654v2.274h-1.938v-2.274h-2.255v-1.938h2.255v-2.209
			h1.938v2.209h2.227v1.938H16.32z"/>
		<circle style="fill:#030104;" cx="9.453" cy="3.723" r="3.723"/>
		<path style="fill:#030104;" d="M15.46,10.426c0.729,0,1.422,0.148,2.054,0.414c-1.342-2.226-4.513-2.194-4.513-2.194H10.47
			l-1.017,1.67l-1.018-1.67h-2.9c-5.345,0.102-5.153,4.026-5.153,4.026v5.177h3.145v-4.491h0.986l-0.011,4.491h6.119
			c-0.289-0.652-0.452-1.373-0.452-2.132C10.168,12.8,12.542,10.426,15.46,10.426z"/>
	</g>
</g>
<g>
</g>
<g>
</g>
<g>
</g>
<g>
</g>
<g>
</g>
<g>
</g>
<g>
</g>
<g>
</g>
<g>
</g>
<g>
</g>
<g>
</g>
<g>
</g>
<g>
</g>
<g>
</g>
<g>
</g>
</svg>
